# xmcd
#
# Track frame offsets:
# 150
# 23302
# 40252
# 64677
#
# Disc length: 1164 seconds
#
#
# Revision: 4
# Processed by: cddbd v1.5.1PL0 Copyright (c) Steve Scherf et al.
# Submitted via: FreeRIP 2.70 
#
DISCID=24048a04
DTITLE=Puff Daddy - Tribute To The Notorious BIG
DYEAR=1997
DGENRE=R&B
TTITLE0=Puff Daddy and Faith Evans Featuring 112 - I'll Be Missing You
TTITLE1=The Lox - We'll Always Love Big Poppa
TTITLE2=112 - Cry On
TTITLE3=Puff Daddy and Faith Evans Featuring 112 - I'll Be Missing You (Instrumental)
EXTD=
EXTT0=
EXTT1=
EXTT2=
EXTT3=Inst
PLAYORDER=
